<?xml version="1.0" encoding="UTF-8"?>
<svg xmlns="http://www.w3.org/2000/svg" viewBox="0 0 3072 3072">
  <defs>
    <style>
      .cls-1, .cls-2 {
        stroke-width: 0px;
      }

      .cls-2 {
        fill: #fff;
      }
    </style>
  </defs>
  <g id="achter_vlak" data-name="achter vlak">
    <path class="cls-2" d="M836.15,1074.06v1399.7h1399.7v-1399.7H836.15ZM2213.79,2185.6H858.21v-1090.38h1355.58v1090.38Z"/>
  </g>
  <g id="aap">
    <g>
      <g>
        <path class="cls-2" d="M1600.94,2048.22c-.51.32-.93,1.53-.93,2.69s.28,2.39.62,2.74c.34.34.76.62.93.62s.31-1.49.31-3.31c0-1.97-.38-3.08-.93-2.74Z"/>
        <path class="cls-2" d="M1365.45,1400.7c.05.48.04.98-.04,1.48.12-.41.2-.81.2-1.16,0-.58-.15-1.12-.48-1.64.16.39.26.82.31,1.31Z"/>
        <path class="cls-2" d="M1320.97,1894.28c.12.16.43.42.88.71-1.14-1.22-1.69-1.86-.88-.71Z"/>
        <path class="cls-2" d="M2117.68,1272.01c-.88-4.34-2.73-10.61-4.13-13.93-1.4-3.33-4.13-8.53-6.08-11.57-1.95-3.04-5.9-8.02-8.79-11.07-2.89-3.05-8.21-7.92-11.83-10.81-3.62-2.89-10.42-7.25-15.12-9.67-4.7-2.43-11.98-5.28-16.18-6.34-5.7-1.44-9.3-1.81-14.18-1.43-3.59.28-9.4,1.45-12.9,2.6-3.5,1.16-8.71,3.51-11.57,5.23-2.86,1.72-7.95,5.39-11.31,8.14-3.36,2.75-10.71,9.75-16.35,15.54-5.64,5.79-14.42,15.4-19.53,21.36-5.11,5.95-11.87,14.99-15.03,20.09-3.16,5.1-7.89,14.01-10.51,19.81-2.62,5.8-4.63,11.41-4.48,12.46.24,1.71.82,1.89,5.39,1.62,2.81-.16,6.9-1.15,9.09-2.19,2.84-1.35,7.16-5.56,15.18-14.79,6.16-7.09,14.35-15.84,18.2-19.43,3.85-3.6,11.88-10.47,17.84-15.27,5.96-4.8,13.77-10.7,17.35-13.09,3.58-2.4,9.86-5.98,13.95-7.97,4.09-1.98,10.74-4.51,14.77-5.61,5.5-1.5,9.26-1.92,15.06-1.68,7.56.32,7.87.42,14.53,5.04,3.74,2.6,9.16,7.52,12.03,10.93,2.88,3.42,6.76,9.35,8.63,13.18,1.87,3.83,3.77,8.93,4.21,11.33.46,2.48.46,5.27,0,6.49-.7,1.84-1.4,2.11-5.03,1.95-3.95-.17-4.54.13-9.34,4.87-2.82,2.78-5.91,6.65-6.87,8.59-1.36,2.75-1.64,4.83-1.27,9.43.37,4.58.03,7.07-1.5,11.16-1.08,2.9-3.7,8.29-5.81,11.99-2.11,3.7-4.56,8.82-5.45,11.38-.89,2.56-2.1,8-2.71,12.09-.6,4.09-1.51,13.26-2.02,20.38-.51,7.12-1.59,15.91-2.4,19.53-.81,3.63-2.23,8.77-3.14,11.43-.92,2.66-3.26,7.41-5.21,10.57-1.95,3.16-3.68,5.33-3.84,4.84-.16-.49.95-4.41,2.48-8.71,1.53-4.3,3.61-11.16,4.63-15.25,1.02-4.09,2.72-14.56,3.79-23.25,1.07-8.7,3.08-20,4.47-25.11,1.81-6.67,2.5-11.28,2.41-16.28-.1-5.77-.97-9.47-5.01-21.39-2.69-7.93-7.15-19.23-9.91-25.11-2.77-5.88-5.96-11.63-7.09-12.78q-2.07-2.08-8.77,5.25c-4.84,5.29-8.86,8.58-14.41,11.79-4.24,2.45-10,5.41-12.82,6.56-2.81,1.15-5.12,2.51-5.12,3.02s1.71,2.39,3.8,4.18c2.09,1.79,6.15,6.16,9.01,9.7,2.86,3.54,7.49,9.95,10.29,14.24,2.79,4.29,6.96,11.56,9.26,16.17,2.3,4.6,5.31,11.93,6.7,16.28,1.44,4.52,2.72,11.09,2.99,15.35.39,6.09.11,8.54-1.57,13.49-1.13,3.32-3.86,8.77-6.08,12.09-2.22,3.33-6.26,8.28-8.98,11.01-2.72,2.73-7.96,6.98-11.64,9.45-3.68,2.47-9.12,5.4-12.09,6.52-2.97,1.12-7.83,2.49-10.8,3.05-4.1.77-6.78.73-11.1-.16-3.13-.65-7.61-2.15-9.94-3.33-2.33-1.19-5.9-3.77-7.92-5.73-2.32-2.26-3.4-2.9-2.92-1.72.41,1.02.79,2.27.84,2.78.05.51-.37,1.98-.93,3.26-.56,1.28-1.94,3.16-3.08,4.19-1.14,1.02-2.47,2.89-2.95,4.15-.48,1.26-.65,3.2-.37,4.31.29,1.15,1.43,2.2,2.66,2.43,1.18.23,3.38,1.29,4.89,2.36,1.51,1.07,5.08,3.24,7.94,4.82,2.86,1.58,7.88,3.95,11.16,5.27,3.28,1.32,8.37,3.47,11.31,4.77,3.83,1.7,5.35,2.88,5.35,4.16,0,.98-1.34,3.46-2.98,5.49-1.64,2.04-4.31,4.53-5.94,5.54-1.63,1.01-5.24,2.25-8.03,2.77-3.89.72-6.62.61-11.79-.48-3.7-.78-8.54-1.41-10.75-1.41-4.03,0,9.21,24.07-1.43,12.09-4.34-4.88-4.01,12.15-4.22,12.79-.12.38-.61.71-1.25.93,3.19-.38,10.12-1.03,10.12-.69,0,.37-8.56,1.71-11.33,2.07,1.25.02,3.27.46,5.02,1.13,2.21.84,7.57,1.88,11.91,2.29,4.34.42,10.61.55,13.93.3,3.33-.26,9.09-1.23,12.82-2.17,3.73-.94,10.28-3.35,14.56-5.35,4.28-2.01,11.95-6.4,17.04-9.75,5.74-3.79,11.78-8.81,15.91-13.23,3.66-3.92,8.98-10.63,11.83-14.9,2.84-4.27,6.84-11.87,8.89-16.87,2.04-5,4.51-12.02,5.48-15.61.97-3.58,2.41-10.7,3.19-15.81.78-5.12,1.85-17.25,2.36-26.97.51-9.72,1.37-19.53,1.9-21.79.53-2.26,2.38-6.03,4.1-8.37,1.72-2.34,5.9-6.7,9.29-9.69,3.39-2.99,8.43-8.24,11.2-11.68,2.77-3.43,6.32-8.81,7.88-11.96,1.56-3.15,3.69-9.19,4.72-13.44,1.04-4.25,2.14-11.91,2.45-17.04.42-6.97.16-11.31-1.03-17.21Z"/>
        <path class="cls-2" d="M1104.25,1481.31c-3.77-4.26,4.16-3.58,3.84-5.12-.51-2.42-1.05-2.83-4.07-3.08-1.91-.16-6.02.36-9.14,1.16-3.12.8-7.83,1.45-10.47,1.45-2.64,0-6.29-.42-8.1-.92-1.81-.5-4.71-1.96-6.43-3.23-1.73-1.27-3.9-3.48-4.84-4.89-.93-1.42-1.7-3.86-1.71-5.43,0-1.91.84-3.64,2.55-5.25,1.41-1.32,6.95-4.59,12.32-7.27,5.37-2.67,13.11-6.77,17.21-9.09,4.09-2.33,7.61-4.36,7.82-4.53.21-.16.29-9.9-1.78-6.82-4.86,7.25-.91-7.29-1.61-7.99-1.07-1.07-2.24-.63-7.55,2.9-3.56,2.37-9.08,4.99-12.74,6.05-4.68,1.36-7.74,1.71-11.06,1.27-2.53-.33-6.72-1.33-9.31-2.23-2.59-.89-7.33-2.94-10.54-4.56-3.21-1.62-9.13-5.85-13.17-9.41-4.23-3.72-8.72-8.75-10.59-11.83-1.79-2.95-4.15-8.03-5.24-11.28-1.09-3.25-2.23-8.53-2.53-11.73-.3-3.2-.09-8.39.47-11.54.55-3.15,2.49-9.35,4.29-13.77,1.81-4.43,7.34-14.99,12.3-23.47,4.96-8.48,11.9-19.56,15.43-24.62,5.23-7.49,6.19-9.41,5.19-10.32-.68-.62-3.95-2.07-7.28-3.24-3.32-1.17-9.07-3.55-12.77-5.29-5.49-2.59-7.15-3.91-9.08-7.19-1.29-2.21-3.15-4.74-4.13-5.63-1.7-1.54-1.84-1.51-3.15.56-.75,1.19-3.23,5.52-5.51,9.61-2.28,4.09-5.24,10.37-6.59,13.95-1.35,3.58-3.72,11.52-5.26,17.65-1.84,7.3-2.81,13.46-2.81,17.88,0,3.71.81,11.88,1.8,18.16.99,6.28,2.08,15.39,2.41,20.25.34,4.86,1.44,13.65,2.44,19.53,1,5.88,2.65,13.84,3.66,17.67,1.01,3.84,1.68,7.81,1.5,8.84-.23,1.31-1.18.06-3.22-4.27-1.59-3.37-3.55-9.44-4.36-13.49-.81-4.05-1.87-15.1-2.37-24.56-.49-9.46-1.34-19.93-1.89-23.25-.55-3.33-1.41-7.88-1.92-10.11-.51-2.24-2.67-6.63-4.81-9.77-2.14-3.14-5.02-7.8-6.42-10.36-1.7-3.12-3.17-8.28-4.48-15.67-1.07-6.06-2.72-12.54-3.67-14.41-.95-1.87-2.6-4.18-3.65-5.13-1.3-1.18-2.84-1.6-4.77-1.32-2.45.36-3.13-.03-4.85-2.82-1.84-2.98-1.92-3.72-.98-9.2.68-3.96,2.37-8.33,5.05-13.04,2.21-3.89,6.05-9.3,8.51-12.01,2.47-2.71,6.95-6.78,9.95-9.04,3.21-2.41,7.31-4.55,9.93-5.17,3.51-.83,6.07-.78,11.95.25,4.17.73,9.94,2.56,13.02,4.12,3.04,1.54,8.95,5.25,13.12,8.25,4.17,3,14.63,11.8,23.25,19.57,8.62,7.77,20.9,19.42,27.3,25.9,6.39,6.48,14.33,13.85,17.64,16.38,4.99,3.83,6.57,4.56,9.3,4.33,3.14-.26,3.28-.43,3.11-3.57-.1-1.81-1.61-6.69-3.36-10.83-1.75-4.14-7.11-14.32-11.91-22.61-4.8-8.29-12.69-20.37-17.53-26.84-4.84-6.47-12.16-15.13-16.28-19.26-4.11-4.12-10.12-9.28-13.36-11.47-3.23-2.19-8.6-5.26-11.93-6.81-4.86-2.27-7.68-2.92-14.37-3.31-5.99-.34-10.07-.04-14.58,1.07-3.44.85-8.94,2.8-12.21,4.33-3.27,1.53-8.56,4.65-11.76,6.93-3.2,2.28-8.82,7.4-12.49,11.38-3.67,3.98-8.61,10.16-10.99,13.74-2.37,3.58-5.8,9.86-7.61,13.95-3.27,7.37-3.3,7.57-3.3,20.46,0,11.18.37,14.53,2.64,23.72,1.45,5.88,4.03,13.63,5.72,17.21,1.69,3.58,4.48,8.45,6.19,10.82,1.72,2.37,6.31,8.23,10.21,13.02,3.9,4.79,7.72,9.97,8.5,11.5.77,1.53,2.06,5.72,2.87,9.3.8,3.58,1.71,13.21,2,21.39.36,9.85,1.32,19.04,2.85,27.18,1.27,6.76,3.8,16.6,5.63,21.86,1.82,5.26,5.03,12.86,7.13,16.9,2.09,4.04,5.56,9.69,7.71,12.56,2.15,2.87,5.97,7.34,8.48,9.93,2.52,2.59,7.47,6.91,11.01,9.58,3.54,2.68,9.38,6.32,12.97,8.08,3.6,1.77,9,4.07,12.02,5.12,3.01,1.05,8.04,2.47,11.16,3.16s9.66,1.28,14.52,1.32c4.86.04,11.56-.38,14.88-.94,3.32-.56,10.33-2.93,9.87-4.14-.31-.81-1.94-13.42-5.21-17.13Z"/>
        <path class="cls-2" d="M1126.88,1372.51c-.42.02-5.12,3.34-10.44,7.38-5.32,4.05-12.07,8.64-15.01,10.2-3.34,1.78-6.71,2.85-8.98,2.85-2.05,0-5.75-1.05-8.45-2.4-2.65-1.32-5.86-3.64-7.13-5.16-1.28-1.52-2.81-4.38-3.4-6.35-.62-2.06-.79-5.08-.42-7.1.5-2.66,2.18-5.02,6.86-9.67,4.49-4.45,8.63-7.4,14.95-10.64,4.81-2.47,12.13-5.72,16.28-7.23,4.14-1.51,9.34-3.54,11.56-4.51,2.21-.97,3.76-2.2,3.43-2.72-.32-.52-3.26-.95-6.52-.95s-8.79.6-12.28,1.34c-3.49.74-9.49,2.46-13.32,3.83-3.83,1.37-9.67,4-12.98,5.83-3.31,1.84-8.77,6.08-12.14,9.43-3.9,3.88-7.08,8.11-8.76,11.67-2.16,4.58-2.65,6.92-2.74,13.08-.09,6.16.3,8.37,2.19,12.42,1.39,2.97,4.33,6.78,7.44,9.62,2.83,2.59,7.87,5.93,11.19,7.44,3.33,1.5,8.76,3.13,12.07,3.6,3.31.48,6.43,1.28,6.93,1.77s1.06.9,1.24.9,1.46-1.32,2.84-2.93c1.37-1.61,2.66-3.39,2.86-3.95.2-.56.79-2.07,1.32-3.34.52-1.28.99-3.37,1.03-4.65.04-1.3,2.14-4.95,4.73-8.24,2.56-3.25,6.42-8.27,8.57-11.16,2.16-2.89,4.8-6.4,5.88-7.8,1.08-1.41,1.62-2.55,1.19-2.53Z"/>
        <path class="cls-2" d="M1953.95,1498.98c.53,0,1.04-.09,1.48-.24-1.16.14-1.82.24-1.48.24Z"/>
        <path class="cls-2" d="M1957.69,1401.55c.5,2.07.29,2.58-1.12,2.67-1.58.1-1.57.15.11.57,1.01.26,2.38,1.15,3.04,1.99.66.84,2.07,3.14,3.12,5.12,1.88,3.52,2.01,3.59,6,3.04,2.25-.31,7.46-1.86,11.58-3.45,4.13-1.59,9.47-4.36,11.88-6.14,2.41-1.79,5.74-4.79,7.39-6.66,1.66-1.88,3.7-5.46,4.53-7.95,1.06-3.15,1.39-6.43,1.08-10.7-.3-4.19-1.27-7.79-3.02-11.27-1.56-3.1-5.39-7.86-9.73-12.09-5.14-5.02-9.49-8.19-15.47-11.31-4.57-2.38-11.87-5.45-16.22-6.82-4.35-1.37-10.96-2.73-14.7-3.02-4.73-.37-7.13-.18-7.91.6-.87.88-.56,1.61,1.38,3.3,1.37,1.19,5.35,3.1,8.84,4.25,3.49,1.15,8.43,3.13,10.99,4.41,2.56,1.28,6.53,3.58,8.84,5.12,2.3,1.54,6.62,5.14,9.6,8.01,2.98,2.87,6.48,7.01,7.78,9.2,1.93,3.26,2.25,4.69,1.76,7.94-.33,2.18-1.42,5.31-2.42,6.96-1,1.65-3.19,3.83-4.86,4.85-1.67,1.02-4.52,1.85-6.34,1.85-2.14,0-4.76-.98-7.44-2.79-2.27-1.54-6.13-4.38-8.56-6.33-2.43-1.94-7.4-5.32-11.03-7.49-3.63-2.18-6.82-3.74-7.08-3.48-.26.26.31,1.67,1.26,3.13.96,1.46,3.46,4.93,5.56,7.71,2.1,2.79,5.32,7.58,7.16,10.65,1.84,3.07,3.62,6.73,3.96,8.14Z"/>
        <path class="cls-2" d="M1953.4,1500.19c-.19.05.14.02.81-.07-.33,0-.6.02-.81.07Z"/>
        <path class="cls-2" d="M1563.67,1285.51c1.31,4.08,3.35,8.72,4.53,10.3,1.18,1.58,3.7,4.05,5.61,5.49,1.9,1.44,5.84,3.8,8.76,5.24,2.92,1.44,8.13,3.6,11.59,4.8,3.94,1.37,9.58,2.46,15.1,2.94,7.17.62,10.25.39,16.55-1.21,4.26-1.08,12.53-4.14,18.4-6.79,5.86-2.65,15.68-7.08,21.82-9.84,6.14-2.76,14.88-6.09,19.43-7.4,4.54-1.31,11.25-2.72,14.91-3.13,5.3-.6,9.65-.3,21.37,1.49,14.5,2.21,14.89,2.33,26.67,7.95,6.57,3.14,18.88,9.39,27.34,13.89,8.47,4.5,20.65,11.16,27.07,14.8,7.71,4.37,12.57,6.59,14.32,6.55,1.45-.03,5.12-1.18,8.16-2.54,3.03-1.36,7.39-3.81,9.68-5.44,4.11-2.92,4.17-3.05,4.96-9.43.51-4.16.32-9.41-.54-14.73-.73-4.54-2.3-11.09-3.49-14.54-1.24-3.6-5.02-10.45-8.84-16.04-3.67-5.37-9.19-12.35-12.26-15.52-3.07-3.17-9.27-8.39-13.77-11.6-4.5-3.21-10.75-7.37-13.89-9.24-3.14-1.87-9.18-4.89-13.43-6.7-4.25-1.82-12-4.69-17.23-6.38-5.23-1.69-15.96-4.61-23.84-6.48-9.87-2.35-21.52-4.29-37.43-6.24-20.08-2.47-24.64-2.75-34.88-2.14-6.48.38-16.8,1.38-22.93,2.21-8.98,1.22-12.7,2.26-19.15,5.35-4.4,2.11-12.03,5.44-16.95,7.42-4.92,1.97-11.79,5.41-15.27,7.63-3.48,2.22-8.33,6.27-10.77,8.99-2.45,2.72-6.42,7.65-8.81,10.97-4.16,5.75-4.41,6.4-5.39,14.42-.57,4.62-.74,10.45-.39,12.96.35,2.51,1.71,7.91,3.02,12Z"/>
        <path class="cls-2" d="M1226.69,1325.22c1,2.56,2.58,5.71,3.53,6.99,1.24,1.7,2.62,2.37,5.02,2.46,2.44.09,4.23-.66,6.82-2.85,1.94-1.63,7.11-4.32,11.49-5.97,4.38-1.65,14.33-5.21,22.1-7.89,7.77-2.69,19.63-6.49,26.35-8.45,6.72-1.96,15.47-4.11,19.44-4.79,4.81-.82,12.12-1.05,21.93-.71,10.28.36,16.37,1.01,20.21,2.15,3.02.9,9.6,3.79,14.63,6.42,5.03,2.63,14.47,8.01,20.99,11.95,6.52,3.94,17.11,10.04,23.54,13.56,6.43,3.52,13.85,7.09,16.48,7.93,2.85.91,7.05,1.44,10.38,1.32,3.08-.12,8.98-1.15,13.11-2.31,4.13-1.15,10.15-3.7,13.38-5.67,3.51-2.13,7.09-5.27,8.9-7.81,1.67-2.34,3.74-6.33,4.61-8.89.87-2.55,2.18-7.86,2.91-11.8,1.01-5.45,1.16-10.08.65-19.35-.4-7.28-1.25-13.52-2.11-15.5-.79-1.82-3.57-5.3-6.19-7.72-2.61-2.42-7.13-6.15-10.04-8.29-2.91-2.14-9.4-6.05-14.43-8.7-5.03-2.65-14.75-6.91-21.62-9.47-6.86-2.56-17.64-5.94-23.94-7.51-10.03-2.5-14.34-3.02-34.68-4.18-14.72-.84-27.88-1.08-35.95-.65-7,.37-21.29,1.78-31.75,3.14-10.46,1.36-21.41,3.27-24.32,4.25-2.92.98-8.78,3.73-13.04,6.12-4.25,2.39-11.18,6.77-15.38,9.75-4.21,2.98-10.68,8.27-14.39,11.76-3.71,3.49-7.8,8.03-9.1,10.08-1.3,2.05-3.83,7.66-5.62,12.46-1.8,4.8-3.99,12.05-4.87,16.12-.92,4.22-1.44,9.53-1.23,12.4.2,2.75,1.19,7.1,2.18,9.66Z"/>
        <path class="cls-2" d="M1650.82,1627.53c-2.96-2.51-5.75-4.92-7.68-6.66-2.51-2.25-4.9-4.04-6.25-5.03-.45-.33-.78-.57-1-.72-.06-.04-.11-.08-.17-.13-.03-.02-.06-.05-.12-.1-4.94-4.2-7.07-5.93-8.67-7.4-.53-.49-1-.95-1.48-1.44-.63-.66-1.26-1.36-2.08-2.3-1.49-1.71-2.53-3.15-3.56-4.74-1.81-.48-4.92-1.56-7.62-2.68-3.28-1.36-8.51-3-11.63-3.64-3.12-.64-9.44-1.17-14.04-1.16-6.64,0-10.01.55-16.28,2.6-4.35,1.43-10.63,4.21-13.95,6.18-4.04,2.4-8.47,6.32-13.36,11.81-4.02,4.52-8.19,10-9.25,12.18-1.07,2.17-2.17,3.95-2.45,3.95-.28,0-2.1-3.1-4.04-6.88-2.67-5.2-5.14-8.31-10.15-12.78-3.64-3.25-8.33-7.07-10.42-8.49-2.09-1.42-7.29-3.67-11.55-5.02-7.15-2.25-8.6-2.39-18.6-1.87-5.97.31-13.99,1.23-17.83,2.03-3.84.81-9.49,2.7-12.56,4.2-3.25,1.6-10.94,7.36-18.45,13.82-.85.73-1.73,1.49-2.63,2.27-4.15,3.83-8.49,7.69-11.87,10.51-1.81,1.51-3.79,3.1-5.76,4.66-.32.27-.62.53-.9.77-4.57,3.92-11.43,11.05-15.24,15.85-3.82,4.8-9.32,12.2-12.22,16.45-2.9,4.25-7.07,11.08-9.26,15.17-2.19,4.09-5.74,12.46-7.9,18.6-2.15,6.14-5.28,15.14-6.95,20-1.67,4.86-4.98,15.29-7.36,23.18-2.38,7.89-5.57,17.56-7.08,21.49-1.51,3.93-4.11,8.64-5.76,10.47-1.66,1.83-5.65,4.67-8.88,6.31-3.25,1.65-5.52,3.33-5.08,3.77.44.44,2.23.38,4.01-.14,1.77-.51,3.77-.82,4.45-.69.8.16,0,1.81-2.29,4.75-1.93,2.48-5.42,5.81-7.74,7.41-2.32,1.6-5.9,4.42-7.95,6.27-2.05,1.85-6.65,5.59-10.23,8.32-3.58,2.72-6.09,4.78-5.58,4.57.51-.21,3.23-1.56,6.05-3,2.81-1.44,5.97-3.56,7.01-4.7,1.04-1.14,2.3-2.32,2.79-2.61.49-.29,1.84-.82,2.99-1.17,1.4-.43,2.09-.26,2.09.52,0,.64-.81,2.03-1.81,3.09-1,1.06-2.38,3.29-3.08,4.95-.7,1.66-2.81,4.44-4.7,6.16-2.28,2.09-3.43,3.96-3.43,5.58,0,1.86-1.11,3.23-4.69,5.81-2.58,1.85-5.61,4.12-6.74,5.03-1.13.91-1.73,1.98-1.34,2.37.39.39,1.94-.2,3.45-1.32,1.51-1.11,3.84-2.03,5.18-2.03s2.3.31,2.13.7c-.17.38-1.53,2.5-3.03,4.7-1.49,2.2-3.48,4.41-4.41,4.91-.93.5-2.32,2.13-3.09,3.62-.77,1.49-1.06,2.92-.64,3.18.42.26,1.74.22,2.92-.09,1.97-.52,2.1-.34,1.51,2.03-.6,2.38-.48,2.54,1.49,1.92,1.18-.37,2.98-.74,4-.82,1.37-.11,1.94.5,2.14,2.3.22,1.92-.38,2.87-2.79,4.37-1.69,1.06-4.22,3.38-5.63,5.17-1.4,1.79-4.92,5.18-7.82,7.53-2.9,2.36-6.08,4.86-7.08,5.56-1,.7-1.66,1.73-1.48,2.28.18.56,3.19-.91,6.69-3.25,3.49-2.34,8-5.75,10.03-7.58q3.68-3.32,5.81-1.32c1.77,1.67,2.15,3.02,2.23,7.99.09,5.65-.1,6.21-3.42,9.99-1.93,2.2-4.16,5.26-4.94,6.8-.79,1.53-2.05,4.88-2.8,7.44-.76,2.56-1.67,6.01-2.04,7.67-.37,1.68-.29,3.02.18,3.02s1.31-1.99,1.87-4.42c.57-2.43,1.67-5.94,2.45-7.79.78-1.86,2.52-4.68,3.86-6.28,1.34-1.6,3.08-2.9,3.86-2.9,1.15,0,1.27.65.65,3.49-.42,1.92-.68,5.5-.57,7.95.11,2.45-.4,5.89-1.13,7.64q-1.33,3.18,1.39,2.64c2.06-.41,2.87-.15,3.34,1.09.35.9.15,2.31-.44,3.14-.59.83-1.94,3.11-3,5.08-1.06,1.97-1.7,3.82-1.41,4.1.29.29,1.68-.05,3.09-.76,1.41-.71,3.13-1.44,3.82-1.63.69-.19,1.71.11,2.27.66.72.72.46,1.6-.91,3.11-1.05,1.16-2.57,3.15-3.38,4.43-.81,1.28-1.76,3.11-2.13,4.06-.58,1.52-.42,1.61,1.28.7,1.07-.57,2.63-1.04,3.48-1.04,1.3,0,1.15.69-.94,4.42-1.36,2.43-3.25,6.61-4.19,9.29-.99,2.81-1.35,5.1-.85,5.41.48.29,1.51-.64,2.31-2.08.79-1.44,2.18-4.06,3.09-5.81.91-1.76,2.61-3.83,3.79-4.61q2.14-1.42,1.72,4.35c-.38,5.22-.25,5.78,1.37,5.78,1.4,0,1.67.46,1.24,2.09-.3,1.15-2.02,6.18-3.81,11.17-1.8,4.99-3.53,10.75-3.86,12.79-.35,2.16-.22,3.71.3,3.71.49,0,1.31-1.78,1.83-3.95.52-2.17,2.32-7.41,4.01-11.63,1.69-4.22,3.61-8.41,4.28-9.3,1.08-1.45,1.36-1.48,2.64-.21.79.78,1.83,3.92,2.31,6.98.48,3.06,1.57,7.5,2.42,9.88,1.42,3.98,1.43,4.92.07,12.16-.81,4.32-1.47,9.18-1.47,10.8s.39,2.95.86,2.95,1.35-2.41,1.94-5.35c.59-2.94,1.51-7.23,2.05-9.53.53-2.3,1.75-5.01,2.7-6.01,1.28-1.35,2-1.55,2.78-.78.58.58,1.22,3.07,1.44,5.54.22,2.47.62,6.28.88,8.45.27,2.17.83,3.95,1.25,3.95s1.24-1.88,1.82-4.19c.58-2.3,1.42-4.19,1.87-4.19s1.14.73,1.54,1.63c.4.9.91,8.22,1.13,16.28.22,8.06.73,14.65,1.12,14.65s1-3.03,1.35-6.74c.35-3.71,1.06-8.34,1.57-10.29.51-1.95,1.38-3.4,1.93-3.22.55.18,1.76,1.78,2.69,3.55.93,1.77,2.54,5.52,3.58,8.33,1.04,2.81,2.16,6.89,2.49,9.07.33,2.17.95,3.95,1.37,3.95s.89-2.41,1.04-5.35c.21-3.99.63-5.35,1.67-5.35.91,0,1.82,1.76,2.64,5.12.69,2.81,2.26,8.46,3.5,12.56,1.24,4.09,3.92,10.79,5.97,14.88,2.26,4.53,3.53,6.35,3.23,4.65-.27-1.53-.96-5.3-1.54-8.37-.77-4.08-.79-8.33-.06-15.81.55-5.63,1.55-11.84,2.24-13.81.68-1.97,1.66-3.57,2.17-3.56s1.49,2.46,2.18,5.44c.69,2.98,2.27,9.39,3.51,14.25,1.25,4.86,3.4,10.68,4.8,12.93,1.39,2.25,3.24,4.54,4.11,5.08.87.54,1.83.74,2.13.44.3-.3.06-2.5-.54-4.88-.68-2.72-.86-7.16-.48-11.97.33-4.2,1.03-8.63,1.54-9.83.73-1.73,1.2-1.96,2.22-1.12.71.59,1.59,3.25,1.95,5.91.36,2.66,1.48,7.53,2.49,10.81,1.36,4.43,1.77,8.04,1.57,13.95-.15,4.39.07,9.44.48,11.23.41,1.79,1.01,3.55,1.34,3.91.33.36.6-3.72.6-9.05s.45-10.42,1.03-11.35c.57-.9,1.65-1.76,2.4-1.91.89-.18,1.76,1.04,2.5,3.49.8,2.68,1.63,3.76,2.9,3.76s2.49,1.61,4.33,5.7c1.41,3.14,3.35,6.59,4.31,7.67,1.68,1.9,1.73,1.9,1.25.11-.27-1.02-1.61-5.42-2.98-9.77-1.37-4.35-2.9-10.29-3.41-13.2-.51-2.91-.65-6.02-.31-6.91.58-1.51.74-1.5,2.36.18.96.99,3.06,5.98,4.68,11.09,1.62,5.11,3.18,9.5,3.47,9.77.29.26.75-.15,1.03-.92.28-.77.4-4.85.26-9.07-.21-6.46-.02-7.67,1.21-7.67.8,0,2.52,1.67,3.81,3.71,1.29,2.04,3.55,6.96,5.02,10.93,1.47,3.97,4.28,10.88,6.24,15.35,1.96,4.48,3.83,8.14,4.16,8.14s-.63-3.45-2.13-7.67c-2.2-6.2-2.87-10.06-3.51-20.14-.54-8.53-.46-13.23.23-14.88.55-1.33,1.65-3.47,3.85-7.07l.65,2.33c.36,1.28.7,4.08.75,6.23.05,2.15.58,4.98,1.17,6.28.59,1.3,1.7,2.37,2.45,2.37,1.15,0,1.27-1.25.76-7.67-.41-5.1-.18-10.19.69-15.16.75-4.28,2.56-9.96,4.22-13.25,1.6-3.17,3.32-5.77,3.81-5.77s1.16,1.03,1.47,2.29c.32,1.26.13,5.13-.41,8.6-.54,3.47-1.24,10.71-1.56,16.08-.32,5.37-.94,12.43-1.38,15.69-.66,4.93-.5,6.73,1.01,10.75.99,2.66,2.4,5.64,3.13,6.63.73.99,1.51,1.59,1.74,1.34.23-.25-.38-2.92-1.37-5.91-1.65-5.03-1.72-6.61-.83-20.46.53-8.26,1.34-16.27,1.79-17.8.56-1.89.99-2.34,1.34-1.4.28.77,1.63,4.74,3,8.84,1.51,4.53,2.78,10.95,3.23,16.41.41,4.93,1.45,11.41,2.32,14.39.87,2.98,2.4,7.04,3.41,9.02,1.01,1.98,1.99,3.46,2.17,3.27.18-.18-.44-2.63-1.37-5.44-.94-2.81-1.99-8.66-2.33-13.01-.61-7.77-.57-8.02,2.68-14.42,1.82-3.58,3.91-7.35,4.65-8.37,1.21-1.67,1.49-1.72,2.8-.44.84.82,2.25,5.71,3.32,11.54,1.02,5.57,2.07,10.33,2.33,10.59.26.26.66.28.9.04.24-.23.71-3.82,1.06-7.97.55-6.59.89-7.66,2.72-8.49,1.97-.9,2.11-.71,2.57,3.31.26,2.34.25,7.54-.02,11.56s-.12,8.63.34,10.25c.46,1.62,1.36,3.12,1.99,3.33.85.28,1.15-1.52,1.15-6.85,0-3.98.46-9.77,1.03-12.87.57-3.1,1.31-7.1,1.66-8.89.38-1.94,1.18-3.26,1.99-3.26.76,0,1.9,1.64,2.58,3.72.67,2.05,1.9,7.8,2.72,12.79.82,4.99,1.83,9.07,2.25,9.07s1.02-1.15,1.34-2.56c.32-1.41,1.16-4.62,1.88-7.14s1.3-6.9,1.3-9.73c0-4.37.19-4.94,1.26-3.78.69.75,3,6.8,5.13,13.45,2.13,6.65,4.71,13.77,5.73,15.81,1.68,3.37,1.81,3.46,1.36.93-.28-1.53-1.33-5.93-2.34-9.77-1.01-3.84-2.08-9.28-2.38-12.09-.4-3.81-.18-5.59.88-6.98,1.35-1.77,1.5-1.78,3.06-.24.9.89,2.29,3.36,3.08,5.48.79,2.13,2.11,4.29,2.94,4.81.83.52,2.18.68,3.01.36,1.27-.49,1.44-1.69,1.06-7.36-.25-3.73-.7-12.22-1.01-18.87-.34-7.46-.23-11.74.31-11.16.47.51,1.3,2.81,1.83,5.12.53,2.3,2.51,10.25,4.39,17.67,1.88,7.42,4.24,16.21,5.26,19.53,1.01,3.33,2.74,8.35,3.83,11.16,1.09,2.81,2.13,5.29,2.3,5.5.17.21.54.16.82-.13.28-.28-.58-3.18-1.91-6.43-1.9-4.63-2.71-9.06-3.75-20.33-.73-7.93-1.73-16.3-2.22-18.6-.49-2.3-1.16-5.8-1.48-7.77-.43-2.66-.28-3.48.59-3.19.64.21,1.45,1.41,1.78,2.66.33,1.25,1.32,3.65,2.19,5.33.87,1.68,2.74,3.77,4.16,4.64,1.42.87,4.29,2.96,6.39,4.63,2.1,1.67,4.66,4.81,5.68,6.98,1.03,2.16,2.26,7.49,2.75,11.84.49,4.35.74,9.37.57,11.16-.18,1.79-.49,5.26-.71,7.71-.24,2.77-.03,4.34.56,4.14.52-.17,1.8-2.39,2.85-4.92,1.38-3.36,1.92-6.8,1.97-12.65.05-6.53-.33-8.85-2.03-12.35-1.15-2.37-2.09-5.53-2.09-7.02s.35-2.93.78-3.19c.43-.27,2.03.86,3.55,2.5,1.52,1.64,3.47,4.66,4.32,6.71.85,2.05,1.66,5.81,1.8,8.37.22,4.06.52,4.69,2.4,4.96,1.21.17,2.93,1.59,3.93,3.23.98,1.61,2.18,5.03,2.67,7.6.49,2.57,1.38,7.5,1.99,10.95.61,3.45,1.41,6.28,1.79,6.28s.94-3.24,1.24-7.21c.31-3.96,1.43-10.98,2.5-15.58,1.07-4.6,2.52-8.95,3.23-9.66.71-.71,1.9-1.05,2.65-.76.87.33,1.79,3.01,2.51,7.28.69,4.11.91,9.86.55,14.71-.33,4.38-.8,8.9-1.06,10.06-.26,1.15-.15,2.09.25,2.09.39,0,1.47-2.56,2.38-5.68.92-3.12,2.51-9.22,3.54-13.55,1.03-4.33,2.68-10.48,3.66-13.68,1.01-3.27,2.84-6.78,4.18-8.05,1.97-1.85,2.54-2.01,3.21-.92.45.73,1.11,4.44,1.47,8.24.36,3.81.38,9.79.06,13.3-.33,3.51-.28,6.38.11,6.38.39,0,1.67-2.37,2.84-5.26,1.18-2.89,2.75-7.58,3.48-10.41.74-2.84,2.42-6.79,3.74-8.78,1.32-1.99,3.27-5.57,4.34-7.96,1.26-2.82,2.07-3.79,2.31-2.78.2.86.08,7.17-.28,14.04-.36,6.86-.35,14.43,0,16.81.36,2.38,1,4.33,1.43,4.33s.96-1.78,1.18-3.95c.22-2.17,1.77-10.44,3.44-18.37,1.67-7.93,3.64-15.36,4.36-16.51.73-1.15,1.65-2.09,2.05-2.09s1.29,5.76,1.99,12.79c.7,7.03,1.45,14.99,1.67,17.67.22,2.69.73,4.88,1.13,4.88s1.17-2.92,1.7-6.5c.55-3.69.74-12.71.44-20.9-.48-13.28-.4-14.46,1.14-15.05,1.1-.42,2.1-.05,2.93,1.08.82,1.12,1.26,4.41,1.26,9.4,0,4.22.39,7.92.88,8.22.48.3,1.78-1.46,2.9-3.9,1.24-2.72,2.12-6.78,2.29-10.49.15-3.32.31-6.36.36-6.74.05-.38.93-.7,1.95-.7,1.58,0,1.86-.62,1.86-4.13,0-2.27.46-4.42,1.03-4.77.56-.35,2.1.44,3.41,1.75,1.88,1.88,2.46,3.52,2.74,7.79.2,2.97.56,6.35.8,7.5.24,1.15.76,2.09,1.16,2.09s1.41-3.03,2.25-6.74c.84-3.71,2.03-9.46,2.65-12.79.62-3.33,1.08-7.51,1.04-9.3-.05-1.79.31-3.65.8-4.14.56-.56,2.4.6,5.01,3.17,2.91,2.85,4.75,5.8,6.21,9.96,1.15,3.25,2.46,5.9,2.92,5.9s.6-1.15.32-2.56c-.28-1.41-.98-5.28-1.55-8.6-.57-3.33-.84-7.32-.59-8.88.25-1.56.07-3.53-.4-4.37-.55-.99-.44-2.88.32-5.31,1-3.21,1.56-3.77,3.74-3.77,1.61,0,3.86,1.18,6.05,3.17,1.92,1.74,4.75,4.47,6.28,6.07,1.53,1.6,4.05,3.83,5.58,4.96q2.79,2.05,1.28-.26c-.83-1.27-2.92-3.8-4.65-5.62-1.73-1.82-4.33-5.76-5.8-8.75-1.86-3.81-2.51-6.31-2.18-8.36.26-1.61.07-3.64-.42-4.52-.66-1.19-.5-1.75.64-2.18.84-.32,2.91.07,4.59.87,1.68.8,4.59,2.8,6.46,4.44,1.87,1.64,3.62,2.75,3.9,2.48.28-.28-.12-1.69-.87-3.15-.76-1.45-2.46-3.66-3.79-4.9-1.33-1.24-2.41-3.02-2.41-3.95s.6-1.7,1.34-1.7,1.62-.46,1.96-1.01c.34-.56.16-1.48-.41-2.05-.57-.57-1.04-2.03-1.04-3.24,0-1.31.48-2.08,1.16-1.91.64.17,3.67,1.7,6.74,3.4,3.07,1.71,6.21,3.31,6.98,3.57.77.25-.07-.44-1.86-1.54-1.79-1.1-4.62-3.8-6.28-5.98-1.66-2.19-3.02-5.09-3.02-6.44,0-1.96.44-2.47,2.14-2.47,1.18,0,3.59,1.06,5.35,2.36,1.76,1.3,4.17,3.4,5.35,4.67,1.18,1.27,2.57,2.05,3.07,1.74.57-.35.32-1.52-.64-3.04-.86-1.36-2.92-3.94-4.57-5.73-1.66-1.79-3.78-4.6-4.72-6.25-1.69-2.96-1.68-3.03.34-5.18,1.45-1.54,2.05-3.34,2.05-6.14,0-3.03.33-3.89,1.39-3.66.76.17,5.26,3.85,10,8.18,8.45,7.74,8.51,7.78,3.03,1.79-3.07-3.35-7.03-8.54-8.81-11.52-1.77-2.98-3.39-6.82-3.59-8.52-.29-2.52.02-3.24,1.68-3.85,1.83-.68,1.89-.88.57-1.98-.81-.67-1.48-2.22-1.48-3.44,0-1.38.54-2.21,1.44-2.21.79,0,2.71.66,4.27,1.46,2.61,1.35,2.76,1.34,1.97-.08-.47-.85-2.04-2.48-3.48-3.63-2.16-1.72-2.51-2.54-1.98-4.65.35-1.41,1.69-3.53,2.96-4.71q2.31-2.14-.04-4.94c-1.29-1.54-2.35-3.8-2.35-5.03s.43-2.67.96-3.19c.66-.66.33-1.76-1.05-3.51-1.52-1.93-1.75-2.81-.93-3.63.82-.82,2.09-.72,5.25.42,2.76.99,4.37,1.17,4.76.54.33-.53-.52-1.77-1.89-2.77-1.37-.99-2.93-2.65-3.48-3.68-.62-1.15-.67-2.2-.14-2.74.53-.53,1.87-.48,3.49.13,1.45.55,2.98.65,3.41.22.43-.43-.73-2.22-2.57-3.99-1.84-1.76-3.58-3.76-3.85-4.43-.27-.67-.06-1.65.46-2.18.65-.65,1.73-.45,3.41.65,1.35.88,2.68,1.38,2.97,1.1.28-.28.05-1.38-.52-2.44-.57-1.06-2.38-2.6-4.03-3.43-1.65-.82-3.52-2.16-4.16-2.98-.87-1.11-.9-1.64-.08-2.15.6-.37,2.58-.44,4.42-.16,1.83.28,4.23,1.32,5.33,2.31,1.09.99,2.23,2.92,2.52,4.3.29,1.37,1.42,3.96,2.51,5.75,1.09,1.79,2.84,4.09,3.89,5.12l1.9,1.86-.64-1.86c-.35-1.02-1.65-3.32-2.88-5.12-1.23-1.79-3.11-5.35-4.18-7.91-1.79-4.28-2.48-4.91-8.64-7.91-4.28-2.08-6.82-3.89-7.03-5.02-.29-1.55.11-1.7,3.26-1.25,1.97.28,4.42.83,5.44,1.21,1.71.65,1.68.51-.28-1.64-1.17-1.29-4.03-3.71-6.34-5.37q-4.21-3.02-2.14-5.22c1.59-1.7,1.77-2.29.76-2.62-.72-.23-2.35-.71-3.63-1.06-1.28-.35-3.27-1.5-4.42-2.55-1.15-1.05-2.09-2.47-2.09-3.15,0-.86,1.41-1.23,4.65-1.23,2.56,0,4.65-.41,4.65-.91s-1.99-1.98-4.42-3.29c-2.43-1.31-5.88-3.43-7.67-4.71-1.79-1.28-4.46-3.52-5.92-4.97-1.47-1.45-2.88-3.73-3.13-5.07-.35-1.85-.09-2.43,1.12-2.43.87,0,1.44-.42,1.27-.93-.17-.51-1.77-1.66-3.55-2.56-1.78-.89-4.39-3.36-5.81-5.48-1.42-2.12-5.12-10.91-8.24-19.53-3.12-8.62-6.45-19.44-7.41-24.04-.96-4.6-2.78-11.72-4.04-15.81-1.26-4.09-3.41-11.63-4.78-16.74-1.39-5.18-4.41-13.01-6.83-17.67-2.39-4.6-8.86-14.95-14.37-23-5.3-7.74-9-12.63-12.59-16.51-1.68-1.27-3.34-2.57-4.85-3.8-2.58-2.09-5.69-4.69-8.65-7.2ZM1469.45,1619.2c44.95,0,62.21,35.57,62.21,35.57,9.08-17.28,25.52-35.81,65.56-35.81,28.45,0,61.38,32.29,61.38,61.39,0,16.1-7.09,34.38-19.01,48.55-9.75,11.59-22.74,20.43-37.72,23.07-1.15.2-2.3.3-3.45.29-31.69-.1-66.31-74.7-66.31-74.7,0,0-53.75,96.61-86.63,68.41-32.89-28.2-40.79-42.82-40.79-68.41s19.82-58.36,64.77-58.36ZM1320.97,1894.28c-.82-1.15-.26-.51.88.71-.45-.29-.76-.55-.88-.71ZM1589.8,1951.26c-.15.12-.4.41-.68,1.03-2.74,6.07-21.55.38-45.97,1.05-30.57.84-41.64.86-54.54,1.75-6.49.45-14.27,1.83-19.05,2.03-2.33.1-5.31.74-7.36.74-1.23,0-2.13-.23-2.35-.95-.58-1.87.48-1.2,4.6-3.29,3.62-1.84,8.32-2.73,10.88-3.6,2.01-.68,4.38-1.62,5.91-2.06,2.47-.71,8.39-2.25,14.6-3.3,6.58-1.11,14.05-2.01,18.17-2.04,3.63-.02,9.28.78,13.79,1.37,5.21.68,13.35,2.35,19.92,3.22,6.97.92,16.69,1.82,23.64,2.41,6.15.51,13.27-.51,16.42,1.08,1.14.58,1.76.6,2.02.55.19-.15.23-.05,0,0ZM1601.56,2054.26c-.17,0-.59-.28-.93-.62-.34-.34-.62-1.57-.62-2.74s.42-2.37.93-2.69c.55-.34.93.77.93,2.74,0,1.82-.14,3.31-.31,3.31ZM1693.02,1888.7c26.91-2.11,35.13-8.83,38.65-5.39.53.52.78,1.92.12,2.94-1.26,1.91-2.13,4.4-6.78,5.73-3.7,1.06-7.58,4.42-10.59,5.09-2.92.66-9.05,3.64-12.35,4.48-4.03,1.03-11.04,2.83-17.08,4.41-5.86,1.54-12.21,3.22-15.46,4.12-2.35.65-5.28,1.55-7.22,2.09-2.12.59-5.72,1.58-8.84,2.37-3.22.82-7.26,1.81-9.85,2.39-2.58.58-6.63,1.3-9.85,2.01-3.01.66-6.17,1.5-7.88,1.83-2.06.4-6.55,1.31-11.17,1.76-6.12.6-16.4.84-24.96.96-3.45.05-7.4.09-11.45.09-6.76,0-13.82-.1-19.42-.42-8.32-.48-18.56-1.72-24.96-2.64-5.4-.78-11.85-2.17-15.76-2.87-3.69-.66-9.39-1.53-13.79-2.43-4.24-.86-9.18-2.21-12.14-2.82-2.99-.62-8.17-1.47-12.58-2.29-4.38-.81-9.36-1.8-12.21-2.31-2.79-.5-7.56-1.33-11.72-1.99-4.3-.68-9.66-1.47-13.09-1.91-4.23-.54-12.56-1.53-20.36-2.2-8.97-.77-21.71-1.64-31-1.99-10.79-.41-23.9-.64-36.78-.42-10.53.18-21.12,1.32-25.81,1.18-1.65-.05-5-3.52-6.84-5.48,1.6,1.04,4.86,2.56,6.56,2.08,2.94-.83,7.75-1.76,9.3-2.33,1.94-.72,5.36-.82,8.05-1.31,2.86-.52,6.75-1.45,9.52-1.93,3.59-.62,10.6-1.67,17.08-2.44,7.34-.87,17.59-1.95,24.96-2.35,7.79-.43,19.67-.7,28.9-.47,9.17.23,20.75,1.34,28.24,1.88,7.13.52,17.38,1.3,24.96,1.96,6.99.61,15.07,1.47,19.7,1.9,5.29.49,15.79,1.54,25.61,2.28,10.69.8,24.46,1.77,33.5,2.03,10.3.3,17.31.27,26.27-.07,7.35-.28,18.41-1.27,26.93-1.96,8.6-.7,19.91-2.03,27.58-2.5,12.66-.77,26.62-.91,54.01-3.06Z"/>
        <path class="cls-2" d="M1762.1,1872.89c-1.76-2.3-3.82-4.54-4.58-4.97-.77-.43-1.65-.53-1.96-.22-.31.31.73,1.92,2.32,3.57,1.58,1.65,3.82,4.68,4.97,6.73,1.15,2.05,2.96,5.18,4.02,6.98.91,1.54,1.5,2.28,1.85,2.28.19,0,.31-.2.38-.58.16-.86-.62-3.37-1.75-5.58-1.13-2.21-3.49-5.91-5.24-8.21Z"/>
      </g>
      <path class="cls-2" d="M1715.81,1409.42c4.67-.05,8.32-.1,11.21-.17,2.69-.14,4.92-.32,6.24-.51,3.73-.54,7.71-1.81,9.77-3.13,1.91-1.22,4.49-3.32,5.74-4.67,2.04-2.2,2.13-2.6.85-3.88-.78-.78-4.94-2.3-9.25-3.37-5.24-1.31-10.81-1.95-16.87-1.96-4.97,0-12.09.49-15.81,1.09-3.72.6-9.84,1.99-13.61,3.09-5.1,1.49-7.08,2.54-7.81,4.13-.74,1.63-.61,2.67.56,4.46.93,1.42,3.26,2.87,5.95,3.69,1.88.58,4.87.96,9.29,1.18,3.54.08,8.07.09,13.73.04Z"/>
      <path class="cls-2" d="M1365.45,1400.7c-.06-.49-.16-.92-.31-1.31-.53-.84-1.52-1.64-3.1-2.53-1.97-1.1-6.26-2.65-9.53-3.43-2.18-.52-6.34-1.09-10.73-1.52-4.19-.22-9.19-.36-13.83-.36-4.34,0-7.81.05-10.61.17-.59.06-1.16.13-1.7.21-4.48.62-9.1,1.75-10.26,2.5-1.78,1.16-1.95,1.67-1.06,3.33.58,1.08,2.15,2.96,3.5,4.17,1.35,1.22,4.22,3.28,6.38,4.59,2.49,1.51,6.24,2.67,10.23,3.18,3.47.44,11.17.6,17.13.37,5.96-.23,12.99-1.07,15.63-1.85,2.64-.78,5.62-2.24,6.61-3.23.7-.7,1.31-1.8,1.61-2.81.07-.5.09-1,.04-1.48Z"/>
      <path class="cls-2" d="M1907.55,1502.15s0-.06-.01-.09c-.02-.2-.06-.5-.11-.89-.1-.78-.24-1.91-.43-3.35-.37-2.88-.92-6.97-1.6-11.81-1.36-9.68-3.26-22.37-5.43-34.34-1.44-7.98-3-15.65-4.58-21.87-.4-1.58-1.06-3.5-1.92-5.6-.85-2.1-1.9-4.39-3.05-6.71-2.32-4.65-5.09-9.48-7.73-13.44-1.75-2.64-3.46-4.9-4.86-6.43-.79-.87-1.5-1.5-1.95-1.8-1.13-.76-2.44-1.48-3.74-2.11-1.29-.64-2.57-1.19-3.65-1.66-.72-.31-1.35-.58-1.87-.81-.3-.14-.56-.26-.82-.41-1.27-.71-5.67-3.17-9.76-5.45-2.02-1.13-5.07-2.77-8.35-4.51-3.28-1.73-6.78-3.56-9.71-5.04-1.74-.89-3.08-1.71-4.2-2.46-1.12-.75-2-1.4-2.84-1.96-.56-.38-1.11-.71-1.72-1.04-.81-.43-1.75-.84-3.01-1.26-.48-.16-1.28-.36-2.23-.56-.95-.2-2.06-.42-3.22-.64-2.34-.44-4.89-.92-7.04-1.46-1.96-.5-4.77-1.12-7.67-1.7-2.91-.58-5.92-1.13-8.3-1.5-4.79-.74-13.34-1.79-18.87-2.33-1.34-.13-3.16-.26-5.29-.37-2.13-.12-4.57-.22-7.16-.31-5.17-.18-10.94-.29-16.03-.29-.04,0-.08,0-.12,0h0c-10.18,0-26.96.64-37.1,1.41-7.63.58-16.32,1.43-22.04,2.15-1.9.24-3.48.46-4.55.65-3.27.56-7.61,1.59-10.83,2.53-1.07.31-2.02.62-2.74.88-.72.26-1.73.67-2.91,1.18-1.18.51-2.53,1.12-3.95,1.79-2.85,1.34-6.01,2.9-8.76,4.36-2.75,1.45-6.05,3.32-9.14,5.15-3.08,1.83-5.96,3.63-7.82,4.9-.89.61-2.06,1.49-3.37,2.54-1.31,1.05-2.77,2.27-4.28,3.57-3.02,2.61-6.24,5.57-8.9,8.2-3.99,3.96-8.71,9.17-11.89,13.08-1.06,1.3-1.95,2.46-2.57,3.34-1.28,1.82-3,4.6-4.69,7.54-1.7,2.94-3.38,6.07-4.61,8.61-1.84,3.8-3.9,8.86-5.18,12.63-.43,1.25-.77,2.37-.98,3.21-.27,1.07-.51,2-.75,2.82-.24.83-.49,1.56-.84,2.27-.23.47-.5.92-.85,1.34-.46.56-1.05,1.04-1.69,1.38-.86.45-1.75.69-2.72.86-1.3.22-2.79.34-4.74.49-.6.05-1.48.09-2.65.13-1.17.04-2.61.09-4.31.13-3.39.08-7.78.16-12.87.23-10.17.14-23.11.25-36.39.29-6.62.02-12.39.03-17.41.03-7.13,0-12.75-.02-17.16-.08-4.41-.05-7.62-.14-9.95-.26-1.55-.08-2.71-.18-3.62-.31-.52-.08-.96-.16-1.39-.29-.23-.07-.46-.15-.71-.28-.26-.13-.57-.31-.88-.65-.27-.29-.42-.53-.56-.78-.14-.25-.27-.5-.4-.78-.26-.55-.51-1.19-.77-1.9-.51-1.42-1.03-3.15-1.46-4.9-.38-1.58-1.05-3.82-1.8-6.1-.75-2.28-1.59-4.61-2.31-6.39-1.43-3.53-4.35-9.37-6.32-12.66-2-3.35-5.68-8.88-8.04-12.12-1.15-1.57-2.91-3.74-4.79-5.89-1.88-2.16-3.88-4.32-5.5-5.92-1.61-1.59-3.95-3.67-6.37-5.7-2.43-2.02-4.95-4-6.93-5.41-1.99-1.41-5.04-3.42-8.31-5.47-3.26-2.05-6.75-4.17-9.64-5.82-4.4-2.52-9.92-5.2-14.06-6.87-1.38-.56-2.61-1.01-3.56-1.29-1.96-.6-4.94-1.37-8.11-2.1-3.17-.74-6.54-1.45-9.3-1.95-5.52-1-14.96-2.28-20.77-2.81-1.4-.13-3.57-.26-6.24-.37-2.67-.12-5.85-.22-9.33-.31-6.95-.18-15.08-.29-22.71-.29h-.11s0,0,0,0c-11.42,0-18.92.09-24.79.35-5.88.27-10.12.72-15.19,1.46-6.72.99-18.02,3.33-24.85,5.16-5.16,1.38-10.83,3.08-14.34,4.28-1.17.4-2.1.75-2.64.98-.59.25-1.47.66-2.53,1.16-1.06.51-2.3,1.11-3.64,1.78-2.68,1.33-5.75,2.91-8.54,4.39-2.81,1.49-5.88,3.14-8.57,4.6-2.69,1.46-5,2.73-6.25,3.44-2,1.14-4.29,2.3-5.97,3.02-.56.24-1.05.44-1.51.59-.06.02-.2.07-.38.15-.18.08-.39.17-.64.29-.49.24-1.08.55-1.73.9-1.29.72-2.78,1.62-4.11,2.51-1.04.69-2.55,1.71-4.18,2.9-1.63,1.2-3.37,2.58-4.84,3.96-.98.92-1.82,1.85-2.42,2.68-1.1,1.52-2.43,3.54-3.85,5.91-1.42,2.36-2.95,5.07-4.48,7.99-3.06,5.82-6.12,12.47-8.41,18.81-1.53,4.22-2.7,8.32-3.31,11.9-1.66,9.72-2.23,19.22-2.23,27.7,0,12.55,1.25,22.88,2.05,28.5.27,1.88.48,3.22.59,4.02.03.22.05.39.07.57.34,3.76,1.23,11.09,1.96,16.15.36,2.51.9,5.65,1.46,8.66.56,3.01,1.15,5.89,1.62,7.87.47,1.97,1.29,4.9,2.22,7.99.93,3.09,1.97,6.35,2.89,8.99,1.82,5.23,5.38,13.7,7.79,18.55,2.4,4.83,7.05,12.79,10.18,17.4,1.8,2.66,4.34,5.88,7.42,9.42,3.09,3.54,6.73,7.41,10.76,11.42,3.75,3.72,7.73,7.42,11.4,10.61,3.66,3.19,7.03,5.87,9.47,7.54,2.27,1.55,5.56,3.57,8.97,5.53,3.41,1.96,6.96,3.86,9.76,5.22,4.28,2.07,9.52,4.45,13.24,6.02,1.24.52,2.31.96,3.09,1.26,1.6.61,3.89,1.39,6.24,2.15,2.35.76,4.79,1.49,6.69,2,1.87.51,4.6,1.12,7.43,1.7,2.83.57,5.78,1.1,8.11,1.44,2.28.33,5.84.66,9.64.91,3.8.25,7.87.41,11.24.44.41,0,.82,0,1.23,0,3.6,0,7.19-.13,10.43-.35,3.24-.23,6.15-.56,8.36-.97,4.26-.77,11.25-2.44,15.27-3.65,2-.6,4.89-1.58,7.88-2.67,2.99-1.09,6.1-2.28,8.56-3.31,2.48-1.03,5.47-2.34,8.26-3.6,2.79-1.26,5.4-2.49,7.11-3.35,1.7-.85,4.02-2.13,6.37-3.47,2.34-1.34,4.71-2.76,6.5-3.91.86-.55,2.03-1.36,3.37-2.33,1.35-.97,2.87-2.11,4.48-3.33,3.21-2.44,6.74-5.24,9.78-7.78,6.07-5.05,15.58-13.78,20.96-19.24,4.05-4.1,8.98-9.52,12.44-13.62,1.15-1.37,2.14-2.59,2.87-3.54,1.49-1.96,3.45-4.73,5.39-7.59,1.94-2.86,3.86-5.82,5.26-8.13,2.83-4.66,6.98-12.16,9.13-16.48,1.08-2.17,2.34-4.88,3.5-7.49,1.15-2.61,2.2-5.12,2.84-6.83,1.3-3.47,3.26-9.61,4.29-13.42,1.03-3.81,2.41-10.09,3.01-13.72l1.13-6.83c.19-1.13,1.16-1.95,2.3-1.95l46.04.16c10.39.04,20.4.13,28.78.25,8.39.13,15.14.28,19.08.45,1.13.05,2.02.1,2.69.15.36.03.65.06.92.1,1.1.17,2,.32,2.8.51.8.19,1.5.41,2.18.76.45.23.88.54,1.25.91.5.5.85,1.09,1.08,1.65.13.32.23.63.32.95h0c.12.42.23.94.37,1.6.13.66.28,1.43.44,2.28.31,1.71.64,3.72.93,5.66.27,1.8.84,4.61,1.53,7.6.69,3,1.51,6.2,2.28,8.83.77,2.65,1.82,5.98,2.88,9.17,1.06,3.19,2.14,6.26,2.96,8.39,1.64,4.26,4.88,11.59,7.12,16.08.54,1.09,1.29,2.48,2.17,4.04.88,1.56,1.89,3.29,2.97,5.08,2.15,3.58,4.56,7.39,6.68,10.54,2.18,3.23,3.48,5.4,4.59,7.14,1.11,1.74,2.01,3.03,3.51,4.75.8.92,1.39,1.57,1.93,2.13.54.57,1.06,1.06,1.78,1.69,1.42,1.27,3.62,3.08,8,6.8h0s.07.06.14.1c.12.09.3.22.51.37.43.31,1.03.75,1.74,1.29,1.42,1.07,3.29,2.56,5.27,4.32,1.88,1.69,4.65,4.08,7.59,6.57,2.93,2.49,6.03,5.07,8.57,7.14,3.77,3.07,8.59,6.65,12.1,9.03,1.17.79,2.19,1.45,2.96,1.91.73.43,1.88,1.03,3.27,1.7,1.4.67,3.05,1.42,4.84,2.2,3.58,1.56,7.72,3.23,11.5,4.62,3.78,1.39,8.54,2.95,13.14,4.35,4.6,1.4,9.05,2.62,12.15,3.33,2.56.58,4.66,1.03,6.57,1.38,1.91.35,3.63.59,5.47.77,3.68.35,7.89.43,14.89.43,6.45,0,14.41-.3,20.08-.72,1.89-.14,3.52-.29,4.74-.45,2.49-.32,5.57-.82,8.48-1.38,2.91-.55,5.67-1.16,7.48-1.66,3.76-1.03,9.62-2.86,12.86-4.01,1.62-.58,3.69-1.37,5.69-2.17,2-.8,3.94-1.61,5.29-2.23,1.34-.6,3.58-1.71,6.05-2.99,2.48-1.27,5.2-2.72,7.56-4.01,2.32-1.27,5.22-3.01,7.98-4.76,2.76-1.75,5.4-3.52,7.19-4.84,1.81-1.34,4.36-3.34,6.96-5.47,2.6-2.12,5.28-4.37,7.36-6.22,2.04-1.8,4.79-4.48,7.51-7.29,2.72-2.81,5.43-5.77,7.44-8.15,3.04-3.61,6.7-8.3,9.22-11.8.84-1.16,1.56-2.19,2.07-2.99,1.04-1.61,2.56-4.18,4.12-6.97,1.56-2.8,3.18-5.82,4.45-8.38,1.24-2.49,2.78-6.09,4.21-9.81,1.43-3.73,2.77-7.6,3.65-10.63,1.77-6.12,4.06-16.49,5.02-22.73.97-6.27,2.01-15.39,2.86-29.03ZM1463.38,1506.22c-.2,2.36-.51,4.54-.93,6.84-.44,2.37-1.24,5.72-2.19,9.31-.95,3.58-2.05,7.38-3.09,10.56-1.04,3.2-2.46,7.04-3.93,10.71-1.47,3.67-2.98,7.14-4.22,9.61-2.44,4.86-6.7,12.3-9.6,16.76-2.91,4.46-7.94,11.29-11.36,15.39-1.73,2.08-4.19,4.75-6.81,7.43-2.62,2.68-5.38,5.37-7.7,7.45-2.3,2.06-5.21,4.54-8.07,6.89-2.86,2.36-5.67,4.58-7.77,6.14-1.1.81-2.5,1.75-4.12,2.78-1.62,1.03-3.45,2.14-5.39,3.28-3.88,2.27-8.18,4.63-12.02,6.54-5.74,2.87-12.7,5.97-17.78,7.98-1.7.67-3.18,1.21-4.37,1.59-2.29.73-5.17,1.52-7.99,2.22-2.82.7-5.58,1.31-7.67,1.67-2.1.36-5.09.73-8.3,1.04-3.21.32-6.61.58-9.48.71-1.81.08-3.85.12-5.94.12-2.3,0-4.65-.05-6.83-.14-2.17-.09-4.16-.22-5.73-.39-2.25-.25-5.05-.67-7.79-1.15-2.74-.49-5.41-1.03-7.42-1.54-3.95-1.01-10.44-3.01-14.63-4.51-2.15-.77-4.8-1.9-7.4-3.11-2.6-1.21-5.14-2.51-7.06-3.64-1.89-1.11-4.44-2.75-7.08-4.51-2.64-1.77-5.35-3.66-7.54-5.28-2.19-1.62-4.83-3.72-7.35-5.82-2.52-2.1-4.9-4.18-6.59-5.79-1.7-1.63-3.96-4-6.29-6.58-2.32-2.57-4.69-5.32-6.59-7.67-1.89-2.34-4.13-5.29-6.25-8.18-2.12-2.89-4.11-5.71-5.49-7.82-1.37-2.1-3-4.77-4.53-7.41-1.54-2.64-2.98-5.25-3.98-7.23-1.01-1.99-2.21-4.66-3.37-7.39-1.16-2.73-2.26-5.52-3.05-7.77-1.57-4.48-3.68-11.8-4.76-16.53-.54-2.38-1.15-5.65-1.71-9.06-.55-3.41-1.05-6.93-1.37-9.81-.46-4.23-.71-9.41-.71-14.25,0-2.32.06-4.57.18-6.6.17-2.87.49-6.45.86-9.94.38-3.49.81-6.87,1.23-9.38.42-2.51,1.06-5.54,1.76-8.46.71-2.92,1.47-5.69,2.16-7.72.68-2.01,1.74-4.68,2.9-7.41,1.17-2.74,2.44-5.53,3.57-7.77,1.12-2.22,2.58-4.92,4.05-7.51,1.47-2.59,2.94-5.05,4.09-6.82,1.18-1.81,2.93-4.19,4.86-6.66,1.93-2.46,4.02-4.98,5.84-7.01,1.82-2.03,4.22-4.49,6.63-6.85,2.41-2.36,4.84-4.62,6.75-6.26.99-.84,2.17-1.76,3.49-2.72,1.32-.96,2.76-1.96,4.26-2.95,2.99-1.97,6.16-3.89,8.87-5.3,2.67-1.4,5.93-2.94,9.06-4.33,3.14-1.39,6.13-2.6,8.34-3.35,1.13-.38,2.5-.78,4.06-1.19,1.56-.41,3.29-.82,5.1-1.21,3.62-.79,7.53-1.52,10.93-2.01,4.35-.62,8.32-1.04,13.13-1.3,4.82-.26,10.48-.35,18.31-.35,1.9,0,3.93,0,6.11.02,16.72.08,29.69.64,38.64,1.68,5.21.61,9.21,1.21,13.01,2.04,3.79.83,7.35,1.89,11.67,3.38,3.08,1.06,6.94,2.58,10.74,4.19,3.79,1.61,7.49,3.3,10.26,4.73,4.13,2.12,9.18,5.1,12.95,7.57,1.26.83,2.37,1.59,3.27,2.27,1.78,1.34,4.08,3.3,6.42,5.43,2.34,2.13,4.7,4.4,6.57,6.37,1.87,1.97,4.06,4.5,6.12,7.04,2.06,2.54,3.98,5.06,5.32,7.03,1.31,1.94,2.84,4.41,4.29,6.86,1.45,2.45,2.8,4.88,3.74,6.75,1.86,3.71,4.45,9.77,5.88,13.73.71,1.99,1.56,4.64,2.36,7.37.81,2.73,1.57,5.52,2.1,7.76,1.34,5.62,2.11,13,2.46,22.96.11,3.3.18,6.1.18,8.58,0,2.99-.09,5.52-.29,7.88ZM1886.55,1514.24c-.44,2.51-1.16,5.89-1.96,9.36-.81,3.48-1.7,7.04-2.5,9.88-.8,2.85-1.87,6.23-2.95,9.41-1.08,3.18-2.17,6.15-3.04,8.22-.86,2.04-2.11,4.73-3.44,7.47-1.33,2.74-2.74,5.51-3.93,7.69-1.21,2.22-2.95,5.07-4.8,7.95-1.86,2.87-3.82,5.74-5.48,7.97-.85,1.14-1.93,2.49-3.18,3.98-1.25,1.49-2.65,3.12-4.14,4.78-2.97,3.34-6.24,6.83-9.13,9.72-6.88,6.88-14.03,12.87-20.82,17.43-2.84,1.91-6.35,4.07-9.74,6.04-3.39,1.97-6.66,3.73-9.07,4.87-2.37,1.11-5.36,2.38-8.33,3.55-2.96,1.17-5.87,2.24-8.1,2.94-2.23.7-5.16,1.47-8.16,2.17-3,.69-6.03,1.31-8.46,1.69-2.41.38-5.61.76-8.88,1.09-3.26.32-6.57.59-9.19.71l-.11-2.32.11,2.32c-1.7.08-3.64.12-5.64.12-2.09,0-4.24-.04-6.23-.12-1.99-.08-3.82-.19-5.29-.35-2.15-.22-4.94-.63-7.76-1.12-2.82-.49-5.66-1.05-7.89-1.58-4.4-1.05-11.37-2.98-15.66-4.34-4.36-1.38-11.34-4.1-15.78-6.14-2.25-1.04-5.07-2.51-7.85-4.07-2.78-1.57-5.52-3.21-7.6-4.61-4.07-2.73-10.52-7.39-14.48-10.44-2.14-1.65-4.72-4.01-7.32-6.61-2.59-2.6-5.19-5.42-7.27-7.98-1.99-2.44-4.3-5.42-6.43-8.27-2.13-2.85-4.08-5.57-5.37-7.52-1.28-1.93-2.91-4.56-4.53-7.27-1.62-2.71-3.22-5.5-4.43-7.73-2.43-4.5-5.84-11.73-7.68-16.3-1.84-4.58-4.33-12.04-5.63-16.86-.65-2.43-1.39-5.79-2.09-9.31-.69-3.52-1.33-7.18-1.75-10.18-.76-5.38-1.12-10.17-1.12-14.98,0-1.96.06-3.93.18-5.94.32-5.47,1.2-13.95,1.96-19.05.39-2.58,1.01-5.7,1.7-8.7.7-3,1.46-5.86,2.16-7.97.69-2.08,1.81-4.95,3.06-7.98,1.26-3.03,2.65-6.19,3.9-8.8,1.27-2.65,3.03-5.86,4.88-8.94,1.85-3.09,3.76-6.03,5.37-8.19,1.6-2.14,3.85-4.81,6.23-7.44,2.38-2.64,4.88-5.22,6.98-7.19,2.08-1.94,4.68-4.19,7.22-6.3,2.55-2.11,5.03-4.05,6.9-5.38,3.72-2.63,9.81-6.29,13.83-8.33,2.02-1.02,4.6-2.16,7.18-3.19,2.58-1.03,5.15-1.95,7.17-2.54,1.66-.48,3.31-.97,4.7-1.4,1.39-.42,2.53-.77,3.13-.97.17-.06.3-.1.34-.12.26-.09.53-.18.82-.27.29-.09.61-.18.93-.26.64-.17,1.3-.32,1.9-.43.31-.06.67-.11,1.1-.17.43-.06.91-.12,1.43-.19,1.03-.13,2.19-.26,3.24-.36,2.04-.19,8.32-.8,13.95-1.34,5.69-.55,15.1-1.21,21.04-1.49,1.97-.09,4.57-.13,7.51-.13,6.12,0,13.68.18,19.84.51,6.99.37,15.06,1.14,20.91,1.95,1.95.27,3.65.55,5.01.83,2.58.53,5.68,1.27,8.63,2.04,2.95.78,5.74,1.58,7.74,2.26,1.01.34,2.24.81,3.61,1.36,1.37.55,2.89,1.18,4.47,1.87,3.15,1.36,6.53,2.91,9.4,4.33,2.92,1.44,6.43,3.42,9.8,5.46,3.37,2.05,6.57,4.16,8.88,5.9,2.29,1.72,5.05,4.04,7.71,6.43,2.66,2.38,5.21,4.82,7.06,6.8,3.67,3.94,8.95,10.59,11.97,15.07,1.5,2.23,3.2,5.01,4.76,7.72,1.56,2.72,2.97,5.35,3.89,7.35.9,1.95,1.94,4.42,2.9,6.87.97,2.45,1.85,4.87,2.45,6.72,1.16,3.61,2.9,9.46,3.9,13.12.66,2.41,1.16,5.3,1.55,8.82.39,3.53.67,7.69.85,12.66.12,3.35.19,6.18.19,8.69,0,5.91-.38,10.11-1.25,15.05Z"/>
    </g>
  </g>
  <g id="logo">
    <path id="PRIMAAT-txt" class="cls-1" d="M2144.67,2450.75l-61.84-1.15,1.34-154.7-41.36.19-4.21-27.38,1.34-57.06,69.69-4.4,101.86.19,2.3,57.25-1.72,28.91-40.02.38-.19,155.28-27.19,2.49ZM2030.76,2450.75l-75.63-3.83,2.49-34.66h-14.17l-5.17,38.48-86.16-.96,15.9-229.67c16.21-.26,54.36-6.47,79.64-9.28,24.25-2.68,42.95-4.02,56.1-4.02,7.79,0,15.51.45,23.17,1.34l-3.83,92.86,7.66,149.73ZM1965.65,2358.84l-3.83-71.42-6.89,4.98-1.15,66.44h11.87ZM1845.57,2450.75l-75.63-3.83,2.49-34.66h-14.17l-5.17,38.48-86.16-.96,20.86-233.84c16.21-.26,49.41-2.3,74.68-5.11,24.25-2.68,34.73,1.69,47.88,1.69,7.79,0,24.53,6.46,32.19,7.35l-1.62,81.14,4.65,149.73ZM1781.46,2358.84l-3.83-71.42-6.27,1.74-1.77,69.68h11.87ZM1371.91,2450.75l3.64-245.08c36.51,3.57,74.03,5.36,112.58,5.36l22.98-.19c-.64,8.94-1.28,17.55-1.91,25.85-2.04,22.85-3.06,40.72-3.06,53.61,0,4.47.16,10.69.48,18.67.32,7.98,1.56,18.16,3.73,30.54l20.68-121.01c14.42-3.19,27.51-5.42,39.25-6.7,11.74-1.28,23.36-1.91,34.85-1.91,5.49,0,23.93.45,55.33,1.34l-6.89,90.76,1.91,147.62h-68.93l9.19-90.75-1.15-70.27-20.68,78.5-2.87,82.52-99.75-1.15-27.76-171.36-8.42-14.74,21.83,186.49-85.01,1.91ZM1316.58,2380.29l-72.18-.77.57-41.16-1.15-19.15,9.96-.19.57-48.82-6.32.19-.38-19.34-11.11-40.4,44.99-3.06,72.18.77,2.3,39.83-1.72,20.49-8.81.19.77,48.82,10.34-.19,2.3,19.34-3.06,41.74-39.25,1.72ZM1170.3,2450.75l-9.96-20.3-.96-35.61-10.91,3.64c-2.04,25.66-3.57,43.08-4.6,52.27h-99.18l9.76-90.75,1.91-155.47c11.11,2.81,37.91,4.21,80.42,4.21,21.7,0,42.63-.25,62.8-.77l16.27-.19c.77.51,2.43,3.45,4.98,8.81,5.87,12.76,11.23,25.72,16.08,38.87,2.68,7.53,4.02,11.93,4.02,13.21,0,5.11-3.16,18.35-9.48,39.73-6.32,21.38-10.37,33.73-12.16,37.05-1.4,1.15-15.25,4.15-41.55,9l45.76,8.04c1.02.64,2.74,10.91,5.17,30.83l128.28-1.34c-.89,6.89-1.34,12.83-1.34,17.81,0,7.53.77,14.3,2.3,20.3,1.02,5.23,1.53,9.57,1.53,13.02,0,2.17-.19,4.47-.57,6.89-108.75.51-171.62.77-188.59.77ZM1124.54,2308.1c15.45-1.53,28.53-3.38,39.25-5.55,2.68-.64,4.02-1.18,4.02-1.63v-1.44c0-6-2.17-18.64-6.51-37.91-1.15-4.34-1.98-6.51-2.49-6.51-3.96,0-9.76,1.47-17.42,4.4-4.21,1.79-8.62,10.21-13.21,25.27-2.42,8.3-3.64,15.51-3.64,21.64v1.72ZM930.39,2450.55h-72.18l2.49-91.14.57-152.6c26.42,1.91,52.4,2.87,77.93,2.87h20.3c13.15,0,32.29-.77,57.44-2.3l24.89,50.16-16.7,115.35c-.38,1.02-17.19,16.51-46.68,20.59-19.91,2.68-34.91,4.85-44.99,6.51-1.02,20.17-2.04,37.02-3.06,50.55ZM935.56,2347.93l12.06-2.87,11.49-48.06.19-30.06-18.38-12.06-7.28,2.68v42.89l1.91,47.48Z"/>
  </g>
</svg>